# xmcd
#
# Track frame offsets:
#	150
#	14961
#	31408
#	43292
#	56610
#	75561
#	89790
#
# Disc length: 1468 seconds
#
# Revision: 0
# Processed by: cddbd v1.4PL0 Copyright (c) Steve Scherf et al.
# Submitted via: EZCDDA 4.3.3.2
#
DISCID=5f05ba07
DTITLE=Otis Redding - 6-4-67 Stockholm, Sweden
DYEAR=1900
DGENRE=
TTITLE0=Intro - Daytripper
TTITLE1=Fa Fa Fa Fa Fa (Sad Song)
TTITLE2=My Girl
TTITLE3=Shake
TTITLE4=I've Been Loving You Too Long
TTITLE5=Satisfaction
TTITLE6=Try A Little Tenderness
EXTD=
EXTT0=
EXTT1=
EXTT2=
EXTT3=
EXTT4=
EXTT5=
EXTT6=
PLAYORDER=
